<svg xmlns="http://www.w3.org/2000/svg" aria-hidden="true" style="position:absolute;width:0;height:0;overflow:hidden">
  <defs>
    <symbol id="icon-mobile-screen" viewBox="0 0 21 32">
      <path d="M16.935 2.286H3.636c-1.377 0-2.494 1.152-2.494 2.571v22.286c0 1.42 1.117 2.571 2.494 2.571h13.299c1.377 0 2.494-1.152 2.494-2.571V4.857c0-1.42-1.117-2.571-2.494-2.571zm-4.156 23.952c0 .52-.374.905-.831.905H8.577c-.41 0-.784-.386-.784-.857s.374-.857.831-.857h3.325c.457 0 .831.386.831.809zm3.325-3.381H4.468V5.714h11.636v17.143z"/>
    </symbol>
    <symbol id="icon-menu" viewBox="0 0 29 32">
      <path d="M3.203 6.515c.13-.033 3.79-.052 11.228-.055 9.605-.004 11.066.004 11.274.066 1.368.407 1.507 2.257.216 2.861l-.269.127-11.102.012c-9.649.01-11.134.003-11.346-.059-.814-.236-1.302-1.087-1.076-1.876.139-.485.61-.957 1.075-1.078zm0 7.996c.13-.034 3.79-.052 11.228-.055 9.605-.004 11.066.004 11.274.066 1.368.406 1.507 2.255.216 2.861l-.269.126-11.102.012c-9.649.011-11.134.003-11.346-.058-.814-.236-1.302-1.087-1.076-1.876.139-.485.61-.957 1.075-1.078zm0 7.997c.13-.034 3.79-.052 11.228-.056 9.605-.004 11.066.005 11.274.067 1.368.406 1.507 2.255.216 2.861l-.269.126-11.102.012c-9.649.011-11.134.003-11.346-.058-.814-.237-1.302-1.088-1.076-1.876.139-.485.61-.958 1.075-1.078z"/>
    </symbol>
    <symbol id="icon-logo" viewBox="0 0 35 32">
      <path fill="#02bc6b" d="M2.71 29.802A2.718 2.718 0 0 1 0 27.092v-9.473h6.821v-.011h4.099c1.057-.027 1.951-.948 1.951-2.032a2.047 2.047 0 0 0-2.032-2.032L0 13.546v-2.711c0-1.49 1.219-2.71 2.71-2.71h8.129c2.059 0 3.821.732 5.257 2.195 1.463 1.436 2.195 3.197 2.195 5.257 0 2.032-.705 3.794-2.141 5.23s-3.17 2.195-5.203 2.222H5.419v4.065c0 1.49-1.219 2.71-2.71 2.71z" style="fill:var(--color1, #02bc6b)"/>
      <path fill="#02897a" d="M21.706 4.98c2.994 2.908 4.502 6.529 4.502 10.646 0 4.048-1.445 7.666-4.393 10.583l-4.185-3.937c1.833-1.814 2.733-3.998 2.733-6.645 0-2.667-.927-4.848-2.804-6.671l4.146-3.975z" style="fill:var(--color2, #02897a)"/>
      <path fill="#035b81" d="M28.113 0c4.312 4.305 6.482 9.643 6.482 15.77 0 6.031-2.082 11.366-6.323 15.68l-4.039-3.946c3.159-3.214 4.707-7.112 4.707-11.734 0-4.669-1.6-8.563-4.828-11.786L28.114 0z" style="fill:var(--color3, #035b81)"/>
      <path fill="#028e37" d="M0 23.051h5.419v4.042c0 1.49-1.219 2.71-2.71 2.71s-2.71-1.219-2.71-2.71v-4.042z" style="fill:var(--color4, #028e37)"/>
    </symbol>
    <symbol id="icon-features-01" viewBox="0 0 32 32">
      <path fill="#d6b1ff" d="M24 13.333h8L28 8l-4 5.333zm0 5.334h8L28 24l-4-5.333z" style="fill:var(--color5, #d6b1ff)"/>
      <path fill="#02897a" d="M1.333 0h8v32h-8a1.334 1.334 0 0 1-1.334-1.334V1.333A1.335 1.335 0 0 1 1.333-.001zM12 0h8a1.335 1.335 0 0 1 1.334 1.334v29.333A1.334 1.334 0 0 1 20 32.001h-8v-32z" style="fill:var(--color2, #02897a)"/>
    </symbol>
    <symbol id="icon-features-02" viewBox="0 0 32 32">
      <path fill="#d6b1ff" d="M28 32H16a1.334 1.334 0 0 1-1.334-1.334v-2.667A1.334 1.334 0 0 1 16 26.665h12a1.334 1.334 0 0 1 1.334 1.334v2.667A1.334 1.334 0 0 1 28 32z" style="fill:var(--color5, #d6b1ff)"/>
      <path fill="#11b5e4" d="M28 0H4a1.335 1.335 0 0 0-1.334 1.334v2.667A1.335 1.335 0 0 0 4 5.335h24a1.335 1.335 0 0 0 1.334-1.334V1.334A1.334 1.334 0 0 0 28 0zM28 8H4a1.335 1.335 0 0 0-1.334 1.334v13.333A1.335 1.335 0 0 0 4 24.001h24a1.334 1.334 0 0 0 1.334-1.334V9.334A1.334 1.334 0 0 0 28 8z" style="fill:var(--color6, #11b5e4)"/>
    </symbol>
    <symbol id="icon-features-03" viewBox="0 0 33 32">
      <path fill="#d6b1ff" d="M6.902 1.333h-4a1.335 1.335 0 0 0-1.334 1.334v26.667a1.335 1.335 0 0 0 1.334 1.334h4V1.335z" style="fill:var(--color5, #d6b1ff)"/>
      <path fill="#f03e3d" d="M9.569 30.667h13.333V1.334H9.569v29.333zm6.667-5.334a1.334 1.334 0 1 1 0-2.667 1.334 1.334 0 0 1 0 2.667zm0-18.666a1.335 1.335 0 0 1 .943 2.277 1.334 1.334 0 1 1-.943-2.277zm0 8a1.334 1.334 0 1 1 0 2.667 1.334 1.334 0 0 1 0-2.667zM29.569 1.333h-4v29.333h4a1.334 1.334 0 0 0 1.334-1.334V2.665a1.334 1.334 0 0 0-1.334-1.334z" style="fill:var(--color7, #f03e3d)"/>
    </symbol>
    <symbol id="icon-triangle" viewBox="0 0 29 32">
      <path d="M27.343 14.302c1.269.728 1.269 2.558 0 3.287L3.701 31.159c-1.263.725-2.838-.187-2.838-1.643V2.376C.863.92 2.438.008 3.701.733l23.642 13.57z"/>
    </symbol>
    <symbol id="icon-sendclock" viewBox="0 0 26 32">
      <path d="M23.664 2.628h1.614a.531.531 0 0 0 .538-.538V1.014a.53.53 0 0 0-.538-.538H.538A.53.53 0 0 0 0 1.014V2.09a.53.53 0 0 0 .538.538h1.613c0 6.218 2.975 10.723 6.269 12.908-3.294 2.185-6.269 6.689-6.269 12.908H.538a.53.53 0 0 0-.538.538v1.076c0 .302.235.538.538.538h24.74a.531.531 0 0 0 .538-.538v-1.076a.531.531 0 0 0-.538-.538h-1.614c0-6.218-2.975-10.723-6.269-12.908 3.294-2.185 6.269-6.689 6.269-12.908zm-2.151 0c0 2.454-.555 4.622-1.429 6.454H5.731c-.874-1.832-1.429-4-1.429-6.454h17.21zm-.958 20.437H5.261c1.244-3.244 3.479-5.546 5.714-6.454h3.866c2.235.908 4.471 3.21 5.714 6.454z"/>
    </symbol>
    <symbol id="icon-slime" viewBox="0 0 41 32">
      <path d="m21.673 12.824 2.674 1.245 3.98-1.184v-2.776c0-4.714-3.98-8.49-8.735-8.49-4.735 0-8.735 3.755-8.735 8.429v12.653c0 1.163-.939 2.082-2.082 2.082s-2.082-.918-2.082-2.082v-5.347H-.001v5.429a8.753 8.753 0 0 0 8.755 8.755c4.796 0 8.755-3.857 8.755-8.633v-12.49c0-1.143.939-2.082 2.082-2.082s2.082.939 2.082 2.082v2.408zm10.817 4.531v5.612c0 1.143-.939 2.061-2.082 2.061s-2.082-.918-2.082-2.061v-5.51l-3.98 1.184-2.674-1.245v5.469c0 4.796 3.939 8.673 8.755 8.673a8.753 8.753 0 0 0 8.755-8.755v-5.429h-6.694z"/>
    </symbol>
    <symbol id="icon-tick" viewBox="0 0 39 32">
      <path d="M38.808 2.039a1.941 1.941 0 0 0-2.785 0L12.43 26.133l-9.069-9.261c-.769-.785-2.016-.785-2.785 0s-.769 2.059 0 2.844l10.461 10.683a1.941 1.941 0 0 0 2.785 0L38.807 4.883a2.041 2.041 0 0 0 0-2.844z"/>
    </symbol>
    <symbol id="icon-heart" viewBox="0 0 34 32">
      <path d="M17.067 30.103c.305 0 .61-.114.838-.343l11.867-11.429c.171-.171 4.362-4 4.362-8.571 0-5.581-3.41-8.914-9.105-8.914-3.333 0-6.457 2.629-7.962 4.114C15.562 3.474 12.438.846 9.105.846 3.41.846 0 4.179 0 9.76c0 4.571 4.191 8.4 4.343 8.533L16.229 29.76c.229.229.533.343.838.343z"/>
    </symbol>
    <symbol id="icon-facebook" viewBox="0 0 32 32">
      <path d="M19.573 1.368a7.994 7.994 0 0 0-7.246 5.802l-.014.056c-.225.816-.267 1.236-.297 3.023l-.031 1.743-1.472.017c-1.671.02-1.775.043-2.147.455-.345.384-.34.324-.34 3.536s-.005 3.152.34 3.536c.372.413.475.435 2.152.455l1.479.019.015 4.808c.015 4.751.016 4.812.127 5.049.135.291.467.601.748.7.165.059.788.073 3.113.073s2.948-.015 3.113-.073c.281-.099.613-.409.748-.7.111-.237.112-.299.127-5.049l.015-4.809 1.479-.017c1.376-.016 1.495-.025 1.719-.131.288-.136.552-.401.663-.668.168-.405 1.429-5.563 1.432-5.859v-.021c0-.378-.166-.717-.428-.949l-.001-.001c-.384-.345-.516-.363-2.821-.363h-2.044V9.34l2.147-.017c2.047-.015 2.157-.021 2.387-.128.291-.135.601-.467.7-.748.059-.165.073-.788.073-3.113s-.015-2.948-.073-3.113c-.099-.281-.409-.613-.7-.748-.231-.108-.327-.112-2.453-.117a106.4 106.4 0 0 0-2.6.014l.094-.001zm3.094 3.965v1.333l-1.347.001c-.74 0-1.515.024-1.72.053-1.133.16-2.065 1.111-2.217 2.265-.033.257-.049 1.261-.039 2.533.015 1.892.025 2.128.112 2.32.129.289.388.551.677.687.229.108.332.115 2.2.131 1.077.009 1.96.027 1.96.04s-.147.611-.325 1.327l-.325 1.301-1.635.017c-1.536.016-1.649.024-1.875.131a1.453 1.453 0 0 0-.674.678l-.004.009c-.089.2-.097.524-.111 5.027l-.015 4.813h-2.661l-.015-4.813c-.013-4.503-.021-4.827-.111-5.027a1.463 1.463 0 0 0-.669-.683l-.008-.004c-.223-.105-.344-.115-1.72-.131l-1.48-.019v-2.648l1.48-.019c1.376-.016 1.497-.025 1.72-.131.289-.137.548-.399.676-.687.087-.192.099-.477.128-2.827.036-2.793.033-2.767.331-3.577.591-1.604 2.064-2.899 3.747-3.292.559-.131.521-.129 2.279-.137l1.64-.007V5.33z"/>
    </symbol>
    <symbol id="icon-instagram" viewBox="0 0 31 32">
      <path d="M7.808 1.408a7.705 7.705 0 0 0-5.685 4.121l-.02.044c-.431.858-.69 1.825-.772 2.894-.064.81-.064 13.027 0 13.837.148 1.92.852 3.485 2.166 4.824 1.238 1.263 2.723 2.003 4.489 2.237.795.106 13.953.106 14.748 0 1.728-.229 3.117-.904 4.369-2.122a7.489 7.489 0 0 0 2.148-3.869l.009-.049c.168-.827.186-1.725.168-8.452-.017-5.943-.027-6.706-.104-7.118-.307-1.665-1.005-3.023-2.134-4.16-1.207-1.215-2.62-1.93-4.329-2.191-.648-.1-14.427-.096-15.053.004zM22.6 3.917c1.966.343 3.503 1.72 4.111 3.686l.143.461v14.643l-.141.448c-.603 1.923-2.03 3.246-3.941 3.66-.396.084-.893.091-7.412.091s-7.017-.006-7.412-.091c-1.911-.413-3.338-1.737-3.941-3.66l-.141-.448V8.064l.143-.461c.603-1.949 2.135-3.333 4.082-3.685.308-.055 1.71-.069 7.224-.073 5.884-.004 6.903.005 7.284.072zm-.547 3.219c.627-.174 1.358.191 1.55.774.106.321.042.844-.134 1.106-.3.445-.771.64-1.318.544l-.008-.001a1.23 1.23 0 0 1-.856-1.778l.003-.007c.151-.304.424-.537.763-.638zm-7.819 1.923c-2.638.54-4.608 2.519-5.101 5.121-.106.558-.105 1.668.001 2.26.439 2.438 2.264 4.426 4.628 5.041.498.14 1.069.221 1.659.221a6.312 6.312 0 0 0 3.284-.915l-.028.016a6.448 6.448 0 0 0 2.993-4.217l.007-.041c.307-1.635-.019-3.325-.901-4.671-1.012-1.544-2.5-2.523-4.31-2.835-.609-.105-1.672-.095-2.234.02zm2.243 2.561c1.24.356 2.188 1.283 2.621 2.563.084.25.119.5.138 1.006.026.62.017.709-.11 1.152a3.922 3.922 0 0 1-2.793 2.73l-.027.006c-.481.122-1.316.12-1.792-.001-2.432-.623-3.642-3.245-2.532-5.485.383-.773.951-1.329 1.769-1.728.301-.147.558-.23 1.121-.364.244-.058 1.243.018 1.604.122z"/>
    </symbol>
    <symbol id="icon-twitter" viewBox="0 0 38 32">
      <path d="M25.419.07a8.796 8.796 0 0 0-6.931 4.901l-.023.052c-.482 1.002-.698 1.829-.802 3.064-.032.382-.075.712-.094.733-.05.05-1.214-.099-1.922-.246-2.912-.603-5.776-2.144-7.818-4.208a21.563 21.563 0 0 1-1.63-1.902l-.039-.053a2.798 2.798 0 0 0-.532-.533l-.007-.005c-.242-.16-.323-.178-.822-.178-.498 0-.579.018-.821.178a2.122 2.122 0 0 0-.449.427l-.003.005c-.328.451-.867 2.093-1.213 3.685-1.13 5.214-.339 9.91 2.293 13.594 1.088 1.523 2.896 3.23 4.419 4.17.245.152.446.291.446.309 0 .019-.339.168-.752.331-2.107.837-3.81 1.176-6.256 1.25-1.389.042-1.53.072-1.92.413-.662.582-.675 1.642-.029 2.288.341.342 2.488 1.386 4.029 1.96 2.678.995 5.189 1.475 8.128 1.549 5.018.126 9.466-1.213 13.496-4.062 4.646-3.286 7.837-8.734 8.706-14.862.192-1.365.264-2.317.275-3.68l.008-1.216.486-.608c1.267-1.584 2.122-3.269 2.602-5.125.146-.565.155-.675.093-.984-.17-.814-.816-1.298-1.656-1.237-.402.029-.485.062-1.07.434-.915.581-1.691 1.005-2.464 1.349-.99.438-.891.435-1.362.046C30.131.546 27.609-.182 25.419.072zm2.357 3.29a7.26 7.26 0 0 1 1.8.825l-.029-.017c.17.115.557.45.859.741.819.79 1.184.875 2.27.526.338-.109.626-.187.638-.174s-.237.31-.552.661c-.317.352-.634.747-.704.88-.146.275-.152.421-.09 2.094.126 3.45-.787 7.349-2.43 10.368a23.326 23.326 0 0 1-1.906 2.868l.039-.052c-.579.728-1.832 1.973-2.597 2.579a19.324 19.324 0 0 1-5.738 3.107l-.137.04c-3.069.992-6.52 1.182-9.92.55-.949-.176-1.342-.275-1.31-.326.014-.024.208-.094.429-.157 1.59-.443 4.805-2.046 5.501-2.742.603-.603.606-1.661.005-2.235-.096-.093-.651-.408-1.232-.702-1.138-.576-2.018-1.107-2.765-1.669-2.762-2.08-4.371-4.818-4.819-8.205-.214-1.619-.078-4.202.296-5.626l.066-.25.491.478c1.931 1.882 4.442 3.365 7.174 4.242 1.712.55 3.17.794 5.074.848l1.323.038.354-.173c.362-.182.645-.475.81-.834l.004-.011c.046-.114.094-.795.122-1.754.05-1.723.117-2.099.52-2.901.838-1.669 2.219-2.736 4.027-3.114.445-.091 1.947-.034 2.427.094z"/>
    </symbol>
    <symbol id="icon-arrow" viewBox="0 0 21 32">
      <path d="M19.042 18.007 1.832.797a1.003 1.003 0 0 0-.756-.319C.942.478.79.512.673.562a1.079 1.079 0 0 0-.672.992v25.277c0 .437.269.824.672.992.118.05.269.084.403.084.286 0 .555-.118.756-.319l5.244-5.244 3.21 7.597a1.08 1.08 0 0 0 1.412.571l2.975-1.26a1.08 1.08 0 0 0 .571-1.412l-3.378-8h6.42c.437 0 .824-.269.992-.672a1.038 1.038 0 0 0-.235-1.16z"/>
    </symbol>
  </defs>
</svg>
