<svg xmlns="http://www.w3.org/2000/svg" width="44" height="44" fill="none">
  <path fill="#02bc6b" d="M2.71 29.802A2.718 2.718 0 0 1 0 27.092v-9.473h6.821v-.011h4.099c1.057-.027 1.951-.948 1.951-2.032a2.047 2.047 0 0 0-2.032-2.032L0 13.546v-2.711c0-1.49 1.219-2.71 2.71-2.71h8.129c2.059 0 3.821.732 5.257 2.195 1.463 1.436 2.195 3.197 2.195 5.257 0 2.032-.705 3.794-2.141 5.23s-3.17 2.195-5.203 2.222H5.419v4.065c0 1.49-1.219 2.71-2.71 2.71z" style="fill:var(--color1, #02bc6b)"/>
  <path fill="#02897a" d="M21.706 4.98c2.994 2.908 4.502 6.529 4.502 10.646 0 4.048-1.445 7.666-4.393 10.583l-4.185-3.937c1.833-1.814 2.733-3.998 2.733-6.645 0-2.667-.927-4.848-2.804-6.671l4.146-3.975z" style="fill:var(--color2, #02897a)"/>
  <path fill="#035b81" d="M28.113 0c4.312 4.305 6.482 9.643 6.482 15.77 0 6.031-2.082 11.366-6.323 15.68l-4.039-3.946c3.159-3.214 4.707-7.112 4.707-11.734 0-4.669-1.6-8.563-4.828-11.786L28.114 0z" style="fill:var(--color3, #035b81)"/>
  <path fill="#028e37" d="M0 23.051h5.419v4.042c0 1.49-1.219 2.71-2.71 2.71s-2.71-1.219-2.71-2.71v-4.042z" style="fill:var(--color4, #028e37)"/>
  <path d="M3.203 6.515c.13-.033 3.79-.052 11.228-.055 9.605-.004 11.066.004 11.274.066 1.368.407 1.507 2.257.216 2.861l-.269.127-11.102.012c-9.649.01-11.134.003-11.346-.059-.814-.236-1.302-1.087-1.076-1.876.139-.485.61-.957 1.075-1.078zm0 7.996c.13-.034 3.79-.052 11.228-.055 9.605-.004 11.066.004 11.274.066 1.368.406 1.507 2.255.216 2.861l-.269.126-11.102.012c-9.649.011-11.134.003-11.346-.058-.814-.236-1.302-1.087-1.076-1.876.139-.485.61-.957 1.075-1.078zm0 7.997c.13-.034 3.79-.052 11.228-.056 9.605-.004 11.066.005 11.274.067 1.368.406 1.507 2.255.216 2.861l-.269.126-11.102.012c-9.649.011-11.134.003-11.346-.058-.814-.237-1.302-1.088-1.076-1.876.139-.485.61-.958 1.075-1.078z"/>
</svg>